ffmpeg started on 2026-01-19 at 11:58:23
Report written to "D:\Convert\FFMetrics\reports\ssim_report-6.txt"
Log level: 32
Command line:
ffmpeg -hide_banner -nostdin -r 24000/1001 -i "F:\\Convert\\files\\[DC] Make Heroine ga Oosugiru - 07_Telegram_HEVC(170).mkv" -r 24000/1001 -i "F:\\Convert\\files\\[DC] Make Heroine ga Oosugiru - 07_Telegram.mp4" -lavfi "[0:v]settb=AVTB,setpts=PTS-STARTPTS,format=pix_fmts=yuv420p10le,fps=24000/1001,scale=1920:1080:flags=lanczos:param0=3:out_range=limited:out_color_matrix=bt709:out_chroma_loc=left,setsar=1/1,setdar=(1920/1080)*(1/1),colorspace=format=yuv420p10:range=tv:primaries=bt709:trc=bt709:space=bt709:fast=0[main];[1:v]settb=AVTB,setpts=PTS-STARTPTS,format=pix_fmts=yuv420p,fps=24000/1001,scale=1920:1080:flags=lanczos:param0=3:out_range=limited:out_color_matrix=bt709:out_chroma_loc=left,setsar=1.000,setdar=1.778,colorspace=format=yuv420p:range=tv:primaries=bt709:trc=bt709:space=bt709:fast=0[ref];[main][ref]ssim=eof_action=endall:stats_file='D\\:/Convert/FFMetrics/logs/ssim_logfile-6.txt'" -f null -
Input #0, matroska,webm, from 'F:\Convert\files\[DC] Make Heroine ga Oosugiru - 07_Telegram_HEVC(170).mkv':
  Metadata:
    COMPATIBLE_BRANDS: isomiso2avc1mp41
    MAJOR_BRAND     : isom
    MINOR_VERSION   : 512
    ENCODER         : Lavf61.7.100
  Duration: 00:24:06.79, start: -0.021000, bitrate: 914 kb/s
  Stream #0:0: Video: hevc (Main 10), yuv420p10le(tv, bt709, progressive), 1920x1080 [SAR 1:1 DAR 16:9], 23.98 fps, 23.98 tbr, 1k tbn (default)
      Metadata:
        HANDLER_NAME    : VideoHandler
        VENDOR_ID       : [0][0][0][0]
        ENCODER         : Lavc61.19.100 libx265
        BPS             : 717429
        DURATION        : 00:24:06.569708333
        NUMBER_OF_FRAMES: 34683
        NUMBER_OF_BYTES : 129726499
        _STATISTICS_WRITING_APP: mkvpropedit v94.0 ('Initiate') 64-bit
        _STATISTICS_WRITING_DATE_UTC: 2026-01-19 06:53:17
        _STATISTICS_TAGS: BPS DURATION NUMBER_OF_FRAMES NUMBER_OF_BYTES
  Stream #0:1: Audio: aac (LC), 48000 Hz, stereo, fltp (default)
      Metadata:
        HANDLER_NAME    : SoundHandler
        VENDOR_ID       : [0][0][0][0]
        ENCODER         : Lavc61.19.100 aac
        BPS             : 193194
        DURATION        : 00:24:06.784000000
        NUMBER_OF_FRAMES: 67819
        NUMBER_OF_BYTES : 34938755
        _STATISTICS_WRITING_APP: mkvpropedit v94.0 ('Initiate') 64-bit
        _STATISTICS_WRITING_DATE_UTC: 2026-01-19 06:53:17
        _STATISTICS_TAGS: BPS DURATION NUMBER_OF_FRAMES NUMBER_OF_BYTES
Input #1, mov,mp4,m4a,3gp,3g2,mj2, from 'F:\Convert\files\[DC] Make Heroine ga Oosugiru - 07_Telegram.mp4':
  Metadata:
    major_brand     : isom
    minor_version   : 512
    compatible_brands: isomiso2avc1mp41
    encoder         : Lavf60.16.100
  Duration: 00:24:06.74, start: 0.000000, bitrate: 3764 kb/s
  Stream #1:0[0x1](und): Video: h264 (High) (avc1 / 0x31637661), yuv420p(tv, bt709, progressive), 1920x1080 [SAR 1:1 DAR 16:9], 3616 kb/s, 23.98 fps, 23.98 tbr, 24k tbn (default)
      Metadata:
        handler_name    : VideoHandler
        vendor_id       : [0][0][0][0]
        encoder         : Lavc60.31.102 h264_qsv
  Stream #1:1[0x2](und): Audio: aac (HE-AACv2) (mp4a / 0x6134706D), 48000 Hz, stereo, fltp, 144 kb/s (default)
      Metadata:
        handler_name    : SoundHandler
        vendor_id       : [0][0][0][0]
Stream mapping:
  Stream #0:0 (hevc) -> settb:default
  Stream #1:0 (h264) -> settb:default
  ssim:default -> Stream #0:0 (wrapped_avframe)
  Stream #0:1 -> #0:1 (aac (native) -> pcm_s16le (native))
Output #0, null, to 'pipe:':
  Metadata:
    COMPATIBLE_BRANDS: isomiso2avc1mp41
    MAJOR_BRAND     : isom
    MINOR_VERSION   : 512
    encoder         : Lavf61.7.100
  Stream #0:0: Video: wrapped_avframe, yuv420p10le(tv, bt709, progressive), 1920x1080 [SAR 1:1 DAR 16:9], q=2-31, 200 kb/s, 23.98 fps, 23.98 tbn
      Metadata:
        encoder         : Lavc61.19.100 wrapped_avframe
  Stream #0:1: Audio: pcm_s16le, 48000 Hz, stereo, s16, 1536 kb/s (default)
      Metadata:
        HANDLER_NAME    : SoundHandler
        VENDOR_ID       : [0][0][0][0]
        _STATISTICS_TAGS: BPS DURATION NUMBER_OF_FRAMES NUMBER_OF_BYTES
        BPS             : 193194
        DURATION        : 00:24:06.784000000
        NUMBER_OF_FRAMES: 67819
        NUMBER_OF_BYTES : 34938755
        _STATISTICS_WRITING_APP: mkvpropedit v94.0 ('Initiate') 64-bit
        _STATISTICS_WRITING_DATE_UTC: 2026-01-19 06:53:17
        encoder         : Lavc61.19.100 pcm_s16le
frame=  139 fps=0.0 q=-0.0 size=N/A time=00:00:05.79 bitrate=N/A speed=11.1x    frame=  329 fps=319 q=-0.0 size=N/A time=00:00:13.72 bitrate=N/A speed=13.3x    frame=  532 fps=345 q=-0.0 size=N/A time=00:00:22.18 bitrate=N/A speed=14.4x    frame=  736 fps=356 q=-0.0 size=N/A time=00:00:30.69 bitrate=N/A speed=14.8x    frame=  913 fps=354 q=-0.0 size=N/A time=00:00:38.07 bitrate=N/A speed=14.8x    frame= 1072 fps=347 q=-0.0 size=N/A time=00:00:44.71 bitrate=N/A speed=14.5x    frame= 1240 fps=344 q=-0.0 size=N/A time=00:00:51.71 bitrate=N/A speed=14.4x    frame= 1415 fps=343 q=-0.0 size=N/A time=00:00:59.01 bitrate=N/A speed=14.3x    frame= 1562 fps=337 q=-0.0 size=N/A time=00:01:05.14 bitrate=N/A speed=  14x    frame= 1727 fps=335 q=-0.0 size=N/A time=00:01:12.03 bitrate=N/A speed=  14x    frame= 1902 fps=335 q=-0.0 size=N/A time=00:01:19.32 bitrate=N/A speed=  14x    frame= 2056 fps=332 q=-0.0 size=N/A time=00:01:25.75 bitrate=N/A speed=13.9x    frame= 2184 fps=326 q=-0.0 size=N/A time=00:01:31.09 bitrate=N/A speed=13.6x    frame= 2348 fps=326 q=-0.0 size=N/A time=00:01:37.93 bitrate=N/A speed=13.6x    frame= 2486 fps=321 q=-0.0 size=N/A time=00:01:43.68 bitrate=N/A speed=13.4x    frame= 2639 fps=320 q=-0.0 size=N/A time=00:01:50.06 bitrate=N/A speed=13.3x    frame= 2825 fps=322 q=-0.0 size=N/A time=00:01:57.82 bitrate=N/A speed=13.4x    frame= 3005 fps=324 q=-0.0 size=N/A time=00:02:05.33 bitrate=N/A speed=13.5x    frame= 3206 fps=327 q=-0.0 size=N/A time=00:02:13.71 bitrate=N/A speed=13.6x    frame= 3405 fps=330 q=-0.0 size=N/A time=00:02:22.01 bitrate=N/A speed=13.8x    frame= 3609 fps=333 q=-0.0 size=N/A time=00:02:30.52 bitrate=N/A speed=13.9x    frame= 3809 fps=336 q=-0.0 size=N/A time=00:02:38.86 bitrate=N/A speed=  14x    frame= 4013 fps=338 q=-0.0 size=N/A time=00:02:47.37 bitrate=N/A speed=14.1x    frame= 4205 fps=340 q=-0.0 size=N/A time=00:02:55.38 bitrate=N/A speed=14.2x    frame= 4396 fps=341 q=-0.0 size=N/A time=00:03:03.34 bitrate=N/A speed=14.2x    frame= 4593 fps=343 q=-0.0 size=N/A time=00:03:11.56 bitrate=N/A speed=14.3x    frame= 4794 fps=344 q=-0.0 size=N/A time=00:03:19.94 bitrate=N/A speed=14.4x    frame= 4987 fps=345 q=-0.0 size=N/A time=00:03:27.99 bitrate=N/A speed=14.4x    frame= 5186 fps=347 q=-0.0 size=N/A time=00:03:36.29 bitrate=N/A speed=14.5x    frame= 5380 fps=348 q=-0.0 size=N/A time=00:03:44.39 bitrate=N/A speed=14.5x    frame= 5587 fps=349 q=-0.0 size=N/A time=00:03:53.02 bitrate=N/A speed=14.6x    frame= 5781 fps=350 q=-0.0 size=N/A time=00:04:01.11 bitrate=N/A speed=14.6x    frame= 5979 fps=351 q=-0.0 size=N/A time=00:04:09.37 bitrate=N/A speed=14.7x    frame= 6180 fps=353 q=-0.0 size=N/A time=00:04:17.75 bitrate=N/A speed=14.7x    frame= 6381 fps=353 q=-0.0 size=N/A time=00:04:26.14 bitrate=N/A speed=14.7x    frame= 6577 fps=354 q=-0.0 size=N/A time=00:04:34.31 bitrate=N/A speed=14.8x    frame= 6781 fps=355 q=-0.0 size=N/A time=00:04:42.82 bitrate=N/A speed=14.8x    frame= 6976 fps=356 q=-0.0 size=N/A time=00:04:50.95 bitrate=N/A speed=14.9x    frame= 7171 fps=356 q=-0.0 size=N/A time=00:04:59.09 bitrate=N/A speed=14.9x    frame= 7368 fps=357 q=-0.0 size=N/A time=00:05:07.30 bitrate=N/A speed=14.9x    frame= 7555 fps=357 q=-0.0 size=N/A time=00:05:15.10 bitrate=N/A speed=14.9x    frame= 7737 fps=357 q=-0.0 size=N/A time=00:05:22.69 bitrate=N/A speed=14.9x    frame= 7936 fps=358 q=-0.0 size=N/A time=00:05:30.99 bitrate=N/A speed=14.9x    frame= 8124 fps=358 q=-0.0 size=N/A time=00:05:38.83 bitrate=N/A speed=14.9x    frame= 8308 fps=358 q=-0.0 size=N/A time=00:05:46.51 bitrate=N/A speed=14.9x    frame= 8504 fps=359 q=-0.0 size=N/A time=00:05:54.68 bitrate=N/A speed=  15x    frame= 8702 fps=359 q=-0.0 size=N/A time=00:06:02.94 bitrate=N/A speed=  15x    frame= 8893 fps=359 q=-0.0 size=N/A time=00:06:10.91 bitrate=N/A speed=  15x    frame= 9082 fps=360 q=-0.0 size=N/A time=00:06:18.79 bitrate=N/A speed=  15x    frame= 9283 fps=360 q=-0.0 size=N/A time=00:06:27.17 bitrate=N/A speed=  15x    frame= 9477 fps=360 q=-0.0 size=N/A time=00:06:35.26 bitrate=N/A speed=  15x    frame= 9676 fps=361 q=-0.0 size=N/A time=00:06:43.56 bitrate=N/A speed=15.1x    frame= 9872 fps=361 q=-0.0 size=N/A time=00:06:51.74 bitrate=N/A speed=15.1x    frame=10067 fps=361 q=-0.0 size=N/A time=00:06:59.87 bitrate=N/A speed=15.1x    frame=10260 fps=362 q=-0.0 size=N/A time=00:07:07.92 bitrate=N/A speed=15.1x    frame=10447 fps=362 q=-0.0 size=N/A time=00:07:15.72 bitrate=N/A speed=15.1x    frame=10639 fps=362 q=-0.0 size=N/A time=00:07:23.73 bitrate=N/A speed=15.1x    frame=10824 fps=362 q=-0.0 size=N/A time=00:07:31.45 bitrate=N/A speed=15.1x    frame=11018 fps=362 q=-0.0 size=N/A time=00:07:39.54 bitrate=N/A speed=15.1x    frame=11212 fps=362 q=-0.0 size=N/A time=00:07:47.63 bitrate=N/A speed=15.1x    frame=11403 fps=363 q=-0.0 size=N/A time=00:07:55.60 bitrate=N/A speed=15.1x    frame=11591 fps=363 q=-0.0 size=N/A time=00:08:03.44 bitrate=N/A speed=15.1x    frame=11782 fps=363 q=-0.0 size=N/A time=00:08:11.40 bitrate=N/A speed=15.1x    frame=11982 fps=363 q=-0.0 size=N/A time=00:08:19.74 bitrate=N/A speed=15.1x    frame=12180 fps=363 q=-0.0 size=N/A time=00:08:28.00 bitrate=N/A speed=15.2x    frame=12374 fps=364 q=-0.0 size=N/A time=00:08:36.09 bitrate=N/A speed=15.2x    frame=12575 fps=364 q=-0.0 size=N/A time=00:08:44.48 bitrate=N/A speed=15.2x    frame=12773 fps=364 q=-0.0 size=N/A time=00:08:52.74 bitrate=N/A speed=15.2x    frame=12965 fps=364 q=-0.0 size=N/A time=00:09:00.74 bitrate=N/A speed=15.2x    frame=13155 fps=364 q=-0.0 size=N/A time=00:09:08.67 bitrate=N/A speed=15.2x    frame=13354 fps=365 q=-0.0 size=N/A time=00:09:16.97 bitrate=N/A speed=15.2x    frame=13539 fps=365 q=-0.0 size=N/A time=00:09:24.68 bitrate=N/A speed=15.2x    frame=13732 fps=365 q=-0.0 size=N/A time=00:09:32.73 bitrate=N/A speed=15.2x    frame=13917 fps=365 q=-0.0 size=N/A time=00:09:40.45 bitrate=N/A speed=15.2x    frame=14104 fps=365 q=-0.0 size=N/A time=00:09:48.25 bitrate=N/A speed=15.2x    frame=14284 fps=364 q=-0.0 size=N/A time=00:09:55.76 bitrate=N/A speed=15.2x    frame=14470 fps=364 q=-0.0 size=N/A time=00:10:03.51 bitrate=N/A speed=15.2x    frame=14669 fps=365 q=-0.0 size=N/A time=00:10:11.81 bitrate=N/A speed=15.2x    frame=14859 fps=365 q=-0.0 size=N/A time=00:10:19.74 bitrate=N/A speed=15.2x    frame=15048 fps=365 q=-0.0 size=N/A time=00:10:27.62 bitrate=N/A speed=15.2x    frame=15222 fps=364 q=-0.0 size=N/A time=00:10:34.88 bitrate=N/A speed=15.2x    frame=15414 fps=364 q=-0.0 size=N/A time=00:10:42.89 bitrate=N/A speed=15.2x    frame=15606 fps=364 q=-0.0 size=N/A time=00:10:50.90 bitrate=N/A speed=15.2x    frame=15798 fps=365 q=-0.0 size=N/A time=00:10:58.90 bitrate=N/A speed=15.2x    frame=15987 fps=365 q=-0.0 size=N/A time=00:11:06.79 bitrate=N/A speed=15.2x    frame=16192 fps=365 q=-0.0 size=N/A time=00:11:15.34 bitrate=N/A speed=15.2x    frame=16375 fps=365 q=-0.0 size=N/A time=00:11:22.97 bitrate=N/A speed=15.2x    frame=16563 fps=365 q=-0.0 size=N/A time=00:11:30.81 bitrate=N/A speed=15.2x    frame=16763 fps=365 q=-0.0 size=N/A time=00:11:39.15 bitrate=N/A speed=15.2x    frame=16967 fps=365 q=-0.0 size=N/A time=00:11:47.66 bitrate=N/A speed=15.2x    frame=17163 fps=366 q=-0.0 size=N/A time=00:11:55.84 bitrate=N/A speed=15.3x    frame=17361 fps=366 q=-0.0 size=N/A time=00:12:04.09 bitrate=N/A speed=15.3x    frame=17558 fps=366 q=-0.0 size=N/A time=00:12:12.31 bitrate=N/A speed=15.3x    frame=17746 fps=366 q=-0.0 size=N/A time=00:12:20.15 bitrate=N/A speed=15.3x    frame=17946 fps=366 q=-0.0 size=N/A time=00:12:28.49 bitrate=N/A speed=15.3x    frame=18147 fps=367 q=-0.0 size=N/A time=00:12:36.88 bitrate=N/A speed=15.3x    frame=18341 fps=367 q=-0.0 size=N/A time=00:12:44.97 bitrate=N/A speed=15.3x    frame=18534 fps=367 q=-0.0 size=N/A time=00:12:53.02 bitrate=N/A speed=15.3x    frame=18724 fps=367 q=-0.0 size=N/A time=00:13:00.94 bitrate=N/A speed=15.3x    frame=18932 fps=367 q=-0.0 size=N/A time=00:13:09.62 bitrate=N/A speed=15.3x    frame=19132 fps=367 q=-0.0 size=N/A time=00:13:17.96 bitrate=N/A speed=15.3x    frame=19332 fps=367 q=-0.0 size=N/A time=00:13:26.30 bitrate=N/A speed=15.3x    frame=19525 fps=368 q=-0.0 size=N/A time=00:13:34.35 bitrate=N/A speed=15.3x    frame=19726 fps=368 q=-0.0 size=N/A time=00:13:42.73 bitrate=N/A speed=15.3x    frame=19922 fps=368 q=-0.0 size=N/A time=00:13:50.91 bitrate=N/A speed=15.3x    frame=20124 fps=368 q=-0.0 size=N/A time=00:13:59.33 bitrate=N/A speed=15.4x    frame=20319 fps=368 q=-0.0 size=N/A time=00:14:07.47 bitrate=N/A speed=15.4x    frame=20507 fps=368 q=-0.0 size=N/A time=00:14:15.31 bitrate=N/A speed=15.4x    frame=20688 fps=368 q=-0.0 size=N/A time=00:14:22.86 bitrate=N/A speed=15.3x    frame=20885 fps=368 q=-0.0 size=N/A time=00:14:31.07 bitrate=N/A speed=15.4x    frame=21089 fps=368 q=-0.0 size=N/A time=00:14:39.58 bitrate=N/A speed=15.4x    frame=21281 fps=368 q=-0.0 size=N/A time=00:14:47.59 bitrate=N/A speed=15.4x    frame=21479 fps=369 q=-0.0 size=N/A time=00:14:55.85 bitrate=N/A speed=15.4x    frame=21682 fps=369 q=-0.0 size=N/A time=00:15:04.32 bitrate=N/A speed=15.4x    frame=21877 fps=369 q=-0.0 size=N/A time=00:15:12.49 bitrate=N/A speed=15.4x    frame=22072 fps=369 q=-0.0 size=N/A time=00:15:20.58 bitrate=N/A speed=15.4x    frame=22268 fps=369 q=-0.0 size=N/A time=00:15:28.76 bitrate=N/A speed=15.4x    frame=22469 fps=369 q=-0.0 size=N/A time=00:15:37.14 bitrate=N/A speed=15.4x    frame=22669 fps=369 q=-0.0 size=N/A time=00:15:45.48 bitrate=N/A speed=15.4x    frame=22865 fps=369 q=-0.0 size=N/A time=00:15:53.66 bitrate=N/A speed=15.4x    frame=23053 fps=369 q=-0.0 size=N/A time=00:16:01.50 bitrate=N/A speed=15.4x    frame=23260 fps=370 q=-0.0 size=N/A time=00:16:10.13 bitrate=N/A speed=15.4x    frame=23457 fps=370 q=-0.0 size=N/A time=00:16:18.35 bitrate=N/A speed=15.4x    frame=23660 fps=370 q=-0.0 size=N/A time=00:16:26.81 bitrate=N/A speed=15.4x    frame=23860 fps=370 q=-0.0 size=N/A time=00:16:35.16 bitrate=N/A speed=15.4x    frame=24058 fps=370 q=-0.0 size=N/A time=00:16:43.41 bitrate=N/A speed=15.4x    frame=24250 fps=370 q=-0.0 size=N/A time=00:16:51.42 bitrate=N/A speed=15.4x    frame=24450 fps=370 q=-0.0 size=N/A time=00:16:59.76 bitrate=N/A speed=15.4x    frame=24657 fps=371 q=-0.0 size=N/A time=00:17:08.40 bitrate=N/A speed=15.5x    frame=24858 fps=371 q=-0.0 size=N/A time=00:17:16.78 bitrate=N/A speed=15.5x    frame=25056 fps=371 q=-0.0 size=N/A time=00:17:25.04 bitrate=N/A speed=15.5x    frame=25248 fps=371 q=-0.0 size=N/A time=00:17:33.05 bitrate=N/A speed=15.5x    frame=25442 fps=371 q=-0.0 size=N/A time=00:17:41.14 bitrate=N/A speed=15.5x    frame=25646 fps=371 q=-0.0 size=N/A time=00:17:49.65 bitrate=N/A speed=15.5x    frame=25840 fps=371 q=-0.0 size=N/A time=00:17:57.74 bitrate=N/A speed=15.5x    frame=26035 fps=371 q=-0.0 size=N/A time=00:18:05.87 bitrate=N/A speed=15.5x    frame=26248 fps=371 q=-0.0 size=N/A time=00:18:14.76 bitrate=N/A speed=15.5x    frame=26443 fps=372 q=-0.0 size=N/A time=00:18:22.89 bitrate=N/A speed=15.5x    frame=26641 fps=372 q=-0.0 size=N/A time=00:18:31.15 bitrate=N/A speed=15.5x    frame=26841 fps=372 q=-0.0 size=N/A time=00:18:39.49 bitrate=N/A speed=15.5x    frame=27030 fps=372 q=-0.0 size=N/A time=00:18:47.37 bitrate=N/A speed=15.5x    frame=27213 fps=372 q=-0.0 size=N/A time=00:18:55.00 bitrate=N/A speed=15.5x    frame=27403 fps=372 q=-0.0 size=N/A time=00:19:02.93 bitrate=N/A speed=15.5x    frame=27605 fps=372 q=-0.0 size=N/A time=00:19:11.35 bitrate=N/A speed=15.5x    frame=27798 fps=372 q=-0.0 size=N/A time=00:19:19.40 bitrate=N/A speed=15.5x    frame=27993 fps=372 q=-0.0 size=N/A time=00:19:27.54 bitrate=N/A speed=15.5x    frame=28188 fps=372 q=-0.0 size=N/A time=00:19:35.67 bitrate=N/A speed=15.5x    frame=28381 fps=372 q=-0.0 size=N/A time=00:19:43.72 bitrate=N/A speed=15.5x    frame=28577 fps=372 q=-0.0 size=N/A time=00:19:51.89 bitrate=N/A speed=15.5x    frame=28762 fps=372 q=-0.0 size=N/A time=00:19:59.61 bitrate=N/A speed=15.5x    frame=28947 fps=372 q=-0.0 size=N/A time=00:20:07.33 bitrate=N/A speed=15.5x    frame=29120 fps=371 q=-0.0 size=N/A time=00:20:14.54 bitrate=N/A speed=15.5x    frame=29302 fps=371 q=-0.0 size=N/A time=00:20:22.13 bitrate=N/A speed=15.5x    frame=29489 fps=371 q=-0.0 size=N/A time=00:20:29.93 bitrate=N/A speed=15.5x    frame=29675 fps=371 q=-0.0 size=N/A time=00:20:37.69 bitrate=N/A speed=15.5x    frame=29846 fps=371 q=-0.0 size=N/A time=00:20:44.82 bitrate=N/A speed=15.5x    frame=30016 fps=371 q=-0.0 size=N/A time=00:20:51.91 bitrate=N/A speed=15.5x    frame=30202 fps=371 q=-0.0 size=N/A time=00:20:59.67 bitrate=N/A speed=15.5x    frame=30385 fps=370 q=-0.0 size=N/A time=00:21:07.30 bitrate=N/A speed=15.5x    frame=30578 fps=371 q=-0.0 size=N/A time=00:21:15.35 bitrate=N/A speed=15.5x    frame=30781 fps=371 q=-0.0 size=N/A time=00:21:23.82 bitrate=N/A speed=15.5x    frame=30980 fps=371 q=-0.0 size=N/A time=00:21:32.12 bitrate=N/A speed=15.5x    frame=31172 fps=371 q=-0.0 size=N/A time=00:21:40.13 bitrate=N/A speed=15.5x    frame=31359 fps=371 q=-0.0 size=N/A time=00:21:47.93 bitrate=N/A speed=15.5x    frame=31557 fps=371 q=-0.0 size=N/A time=00:21:56.18 bitrate=N/A speed=15.5x    frame=31744 fps=371 q=-0.0 size=N/A time=00:22:03.98 bitrate=N/A speed=15.5x    frame=31928 fps=371 q=-0.0 size=N/A time=00:22:11.66 bitrate=N/A speed=15.5x    frame=32118 fps=371 q=-0.0 size=N/A time=00:22:19.58 bitrate=N/A speed=15.5x    frame=32323 fps=371 q=-0.0 size=N/A time=00:22:28.13 bitrate=N/A speed=15.5x    frame=32523 fps=371 q=-0.0 size=N/A time=00:22:36.48 bitrate=N/A speed=15.5x    frame=32683 fps=370 q=-0.0 size=N/A time=00:22:43.15 bitrate=N/A speed=15.5x    frame=32847 fps=370 q=-0.0 size=N/A time=00:22:49.99 bitrate=N/A speed=15.4x    frame=33029 fps=370 q=-0.0 size=N/A time=00:22:57.58 bitrate=N/A speed=15.4x    frame=33204 fps=370 q=-0.0 size=N/A time=00:23:04.88 bitrate=N/A speed=15.4x    frame=33388 fps=370 q=-0.0 size=N/A time=00:23:12.55 bitrate=N/A speed=15.4x    frame=33555 fps=370 q=-0.0 size=N/A time=00:23:19.52 bitrate=N/A speed=15.4x    frame=33711 fps=369 q=-0.0 size=N/A time=00:23:26.02 bitrate=N/A speed=15.4x    frame=33838 fps=369 q=-0.0 size=N/A time=00:23:31.32 bitrate=N/A speed=15.4x    frame=33995 fps=368 q=-0.0 size=N/A time=00:23:37.87 bitrate=N/A speed=15.4x    frame=34157 fps=368 q=-0.0 size=N/A time=00:23:44.63 bitrate=N/A speed=15.3x    frame=34315 fps=367 q=-0.0 size=N/A time=00:23:51.22 bitrate=N/A speed=15.3x    frame=34446 fps=367 q=-0.0 size=N/A time=00:23:56.68 bitrate=N/A speed=15.3x    frame=34634 fps=367 q=-0.0 size=N/A time=00:24:04.52 bitrate=N/A speed=15.3x    [Parsed_ssim_16 @ 000002dd3e9a4cc0] SSIM Y:0.993902 (22.147801) U:0.993613 (21.947344) V:0.993222 (21.689260) All:0.993740 (22.034496)
[out#0/null @ 000002dd314a8a00] video:14903KiB audio:271276KiB subtitle:0KiB other streams:0KiB global headers:0KiB muxing overhead: unknown
frame=34683 fps=367 q=-0.0 Lsize=N/A time=00:24:06.57 bitrate=N/A speed=15.3x    
